# xmcd
#
# Track frame offsets: 
#        150
#        20348
#        35722
#        69433
#        87490
#        99402
#        127063
#
# Disc length: 1930 seconds
#
# Revision: 0
# Processed by: cddbd v1.5.2PL0 Copyright (c) Steve Scherf et al.
# Submitted via: ExactAudioCopyFreeDBPlugin 1.0
#
DISCID=5a078807
DTITLE=Howe Gelb - Label Pop Session
DYEAR=2018
DGENRE=Folk
TTITLE0=4 Door Maverick
TTITLE1=Robes Of Bible Black
TTITLE2=Bottom Line Man
TTITLE3=Paradise Here Abouts
TTITLE4=Looking That Way
TTITLE5=Not The End Of The World
TTITLE6=Man On A String
EXTD=
EXTT0=
EXTT1=
EXTT2=
EXTT3=
EXTT4=
EXTT5=
EXTT6=
PLAYORDER=
